HIERARCHY
ROOT root
{
	OFFSET	0	13.1	24.9
	CHANNELS 6  Xposition Yposition Zposition Xrotation Yrotation Zrotation
	JOINT spine_1
	{
		OFFSET	0	9.99999	0
		CHANNELS 3  Xrotation Yrotation Zrotation
		JOINT spine_2
		{
			OFFSET	0	112	-10
			CHANNELS 3  Xrotation Yrotation Zrotation
			JOINT spine_3
			{
				OFFSET	0	206.5	19.3
				CHANNELS 3  Xrotation Yrotation Zrotation
				JOINT spine_4
				{
					OFFSET	0	110.4	14.6
					CHANNELS 3  Xrotation Yrotation Zrotation
					JOINT neck_1
					{
						OFFSET	0	71.8	-50.3
						CHANNELS 3  Xrotation Yrotation Zrotation
						JOINT neck_2
						{
							OFFSET	0	86.2	-25.8
							CHANNELS 3  Xrotation Yrotation Zrotation
							JOINT head_ee
							{
								OFFSET	0	179.8	-8.7
								CHANNELS 3  Xrotation Yrotation Zrotation
								End Site
								{
									OFFSET	1	0	0
								}
							}
						}
					}
					JOINT left_clavicle
					{
						OFFSET	-43.2	22.4	-70.8
						CHANNELS 3  Xrotation Yrotation Zrotation
						JOINT left_shoulder
						{
							OFFSET	-93.9	-5.79999	48.7
							CHANNELS 3  Xrotation Yrotation Zrotation
							JOINT left_elbow
							{
								OFFSET	-291.4	-30.8	15.2
								CHANNELS 3  Xrotation Yrotation Zrotation
								JOINT left_lowarm_twist
								{
									OFFSET	-110.7	-3.89999	13.6
									CHANNELS 3  Xrotation Yrotation Zrotation
									JOINT left_hand
									{
										OFFSET	-110.7	-3.89999	13.6
										CHANNELS 3  Xrotation Yrotation Zrotation
										JOINT left_ee
										{
											OFFSET	-80.8	-5.10001	12.1
											CHANNELS 3  Xrotation Yrotation Zrotation
											End Site
											{
												OFFSET	1	0	0
											}
										}
									}
								}
							}
						}
					}
					JOINT right_clavicle
					{
						OFFSET	43.2	22.4	-70.8
						CHANNELS 3  Xrotation Yrotation Zrotation
						JOINT right_shoulder
						{
							OFFSET	93.9	-5.79999	48.7
							CHANNELS 3  Xrotation Yrotation Zrotation
							JOINT right_elbow
							{
								OFFSET	291.4	-30.8	15.2
								CHANNELS 3  Xrotation Yrotation Zrotation
								JOINT right_lowarm_twist
								{
									OFFSET	110.7	-3.89999	13.6
									CHANNELS 3  Xrotation Yrotation Zrotation
									JOINT right_hand
									{
										OFFSET	110.7	-3.89999	13.6
										CHANNELS 3  Xrotation Yrotation Zrotation
										JOINT right_ee
										{
											OFFSET	80.8	-5.10001	12.1
											CHANNELS 3  Xrotation Yrotation Zrotation
											End Site
											{
												OFFSET	1	0	0
											}
										}
									}
								}
							}
						}
					}
				}
			}
		}
	}
	JOINT left_hip
	{
		OFFSET	-82.8	-127.5	0.300001
		CHANNELS 3  Xrotation Yrotation Zrotation
		JOINT left_knee
		{
			OFFSET	-28.2	-396.7	2.2
			CHANNELS 3  Xrotation Yrotation Zrotation
			JOINT left_ankle
			{
				OFFSET	-11.7	-411.3	35.4
				CHANNELS 3  Xrotation Yrotation Zrotation
				JOINT left_toes
				{
					OFFSET	0	-60	-88.6
					CHANNELS 3  Xrotation Yrotation Zrotation
					JOINT left_foot_ee
					{
						OFFSET	-22.5	-16.5	-42.2
						CHANNELS 3  Xrotation Yrotation Zrotation
						End Site
						{
							OFFSET	1	0	0
						}
					}
				}
			}
		}
	}
	JOINT right_hip
	{
		OFFSET	82.8	-127.5	0.300001
		CHANNELS 3  Xrotation Yrotation Zrotation
		JOINT right_knee
		{
			OFFSET	28.2	-396.7	2.2
			CHANNELS 3  Xrotation Yrotation Zrotation
			JOINT right_ankle
			{
				OFFSET	11.7	-411.3	35.4
				CHANNELS 3  Xrotation Yrotation Zrotation
				JOINT right_toes
				{
					OFFSET	0	-60	-88.6
					CHANNELS 3  Xrotation Yrotation Zrotation
					JOINT right_foot_ee
					{
						OFFSET	22.5	-16.5	-42.2
						CHANNELS 3  Xrotation Yrotation Zrotation
						End Site
						{
							OFFSET	1	0	0
						}
					}
				}
			}
		}
	}
}
MOTION
Frames: 9
Frame Time: 0.02
391.555 721.904 -1204.45 -143.932343297 -21.727009218 -170.768035686 12.4961 0.447116 2.43996 12.4994 0.290997 2.46345 12.5021 0.307153 2.46148 12.4943 0.691934 2.38216 -14.9109 3.44894 -2.14329 -14.9511 7.87008 -0.886964 -0.0 0.0 -0.0 -1.30828 16.4876 -0.110206 -25.7036 -42.1777 61.1736 0.529826 -14.7063 0.0683725 31.3099 0.0240143 -3.9502 3.88974 -19.858 17.5579 -0.0 0.0 -0.0 11.6216 12.7499 -23.3977 89.2147 -69.0747 19.4801 0.196249 5.55275 -0.00951701 85.1977 4.45021 8.87521 -4.33384 -28.8494 12.1691 0.0 0.0 0.0 46.5456 5.3207 10.3164 -14.3267 0.32007 2.1696 38.3645 24.23 -4.98451 31.8056 -0.0 -0.0 -0.0 0.0 -0.0 48.7797 14.6017 5.56747 -29.5808 -0.059896 -4.48905 32.2275 -27.049 4.41728 19.6039 -0.0 -0.0 0.0 0.0 0.0 
404.60053672 715.592 -1190.76363742 -143.752955587 -15.9899506462 -171.92349515 13.565 0.532295 2.3658 13.5681 0.380719 2.39485 13.5739 0.441196 2.38445 13.5668 0.812142 2.28494 -14.3536 4.17678 -4.07843 -14.3931 10.4398 -2.52609 -0.0 0.0 -0.0 -2.10537 17.1502 -1.24666 -24.1726 -42.4604 61.0884 0.384129 -10.774 0.0362232 33.2209 -0.0443773 -4.18465 5.61929 -27.5228 24.8859 -0.0 0.0 -0.0 11.3252 8.75307 -22.7579 86.6788 -70.4322 20.0395 0.190264 5.38442 -0.00894667 84.7169 4.39266 8.85299 -4.89734 -28.4233 15.6205 0.0 0.0 0.0 45.0186 2.59744 6.64322 -18.8211 0.307804 2.85889 41.7498 25.2713 -5.34209 33.9122 -0.0 -0.0 -0.0 0.0 -0.0 49.6375 13.3913 3.80523 -26.7426 -0.154986 -4.06389 40.9607 -25.2701 5.26833 -5.89522 0.0 0.0 0.0 0.0 0.0 
404.479806991 715.592 -1190.64956837 -143.837009023 -15.5838203391 -172.232444355 13.565 0.532295 2.3658 13.5681 0.380719 2.39485 13.5739 0.441196 2.38445 13.5668 0.812142 2.28494 -14.3536 4.17678 -4.07843 -14.3931 10.4398 -2.52609 -0.0 0.0 -0.0 -2.10537 17.1502 -1.24666 -24.1726 -42.4604 61.0884 0.384129 -10.774 0.0362232 33.2209 -0.0443773 -4.18465 5.61929 -27.5228 24.8859 -0.0 0.0 -0.0 11.3252 8.75307 -22.7579 86.6788 -70.4322 20.0395 0.190264 5.38442 -0.00894667 84.7169 4.39266 8.85299 -4.89734 -28.4233 15.6205 0.0 0.0 0.0 45.0186 2.59744 6.64322 -18.8211 0.307804 2.85889 41.7498 25.2713 -5.34209 33.9122 -0.0 -0.0 -0.0 0.0 -0.0 49.6375 13.3913 3.80523 -26.7426 -0.154986 -4.06389 40.9607 -25.2701 5.26833 -5.89522 0.0 0.0 0.0 0.0 0.0 
404.134587727 715.592 -1190.33417478 -144.060638236 -14.438169261 -173.09580456 13.565 0.532295 2.3658 13.5681 0.380719 2.39485 13.5739 0.441196 2.38445 13.5668 0.812142 2.28494 -14.3536 4.17678 -4.07843 -14.3931 10.4398 -2.52609 -0.0 0.0 -0.0 -2.10537 17.1502 -1.24666 -24.1726 -42.4604 61.0884 0.384129 -10.774 0.0362232 33.2209 -0.0443773 -4.18465 5.61929 -27.5228 24.8859 -0.0 0.0 -0.0 11.3252 8.75307 -22.7579 86.6788 -70.4322 20.0395 0.190264 5.38442 -0.00894667 84.7169 4.39266 8.85299 -4.89734 -28.4233 15.6205 0.0 0.0 0.0 45.0186 2.59744 6.64322 -18.8211 0.307804 2.85889 41.7498 25.2713 -5.34209 33.9122 -0.0 -0.0 -0.0 0.0 -0.0 49.6375 13.3913 3.80523 -26.7426 -0.154986 -4.06389 40.9607 -25.2701 5.26833 -5.89522 0.0 0.0 0.0 0.0 0.0 
404.030266368 715.592 -1190.24189393 -144.123582246 -14.0963195969 -173.351210974 13.565 0.532295 2.3658 13.5681 0.380719 2.39485 13.5739 0.441196 2.38445 13.5668 0.812142 2.28494 -14.3536 4.17678 -4.07843 -14.3931 10.4398 -2.52609 -0.0 0.0 -0.0 -2.10537 17.1502 -1.24666 -24.1726 -42.4604 61.0884 0.384129 -10.774 0.0362232 33.2209 -0.0443773 -4.18465 5.61929 -27.5228 24.8859 -0.0 0.0 -0.0 11.3252 8.75307 -22.7579 86.6788 -70.4322 20.0395 0.190264 5.38442 -0.00894667 84.7169 4.39266 8.85299 -4.89734 -28.4233 15.6205 0.0 0.0 0.0 45.0186 2.59744 6.64322 -18.8211 0.307804 2.85889 41.7498 25.2713 -5.34209 33.9122 -0.0 -0.0 -0.0 0.0 -0.0 49.6375 13.3913 3.80523 -26.7426 -0.154986 -4.06389 40.9607 -25.2701 5.26833 -5.89522 0.0 0.0 0.0 0.0 0.0 
404.337479957 715.592 -1190.51763641 -143.932137419 -15.1087426076 -172.591887144 13.565 0.532295 2.3658 13.5681 0.380719 2.39485 13.5739 0.441196 2.38445 13.5668 0.812142 2.28494 -14.3536 4.17678 -4.07843 -14.3931 10.4398 -2.52609 -0.0 0.0 -0.0 -2.10537 17.1502 -1.24666 -24.1726 -42.4604 61.0884 0.384129 -10.774 0.0362232 33.2209 -0.0443773 -4.18465 5.61929 -27.5228 24.8859 -0.0 0.0 -0.0 11.3252 8.75307 -22.7579 86.6788 -70.4322 20.0395 0.190264 5.38442 -0.00894667 84.7169 4.39266 8.85299 -4.89734 -28.4233 15.6205 0.0 0.0 0.0 45.0186 2.59744 6.64322 -18.8211 0.307804 2.85889 41.7498 25.2713 -5.34209 33.9122 -0.0 -0.0 -0.0 0.0 -0.0 49.6375 13.3913 3.80523 -26.7426 -0.154986 -4.06389 40.9607 -25.2701 5.26833 -5.89522 0.0 0.0 0.0 0.0 0.0 
404.424019329 715.592 -1190.59753125 -143.874798953 -15.3971343455 -172.373937971 13.565 0.532295 2.3658 13.5681 0.380719 2.39485 13.5739 0.441196 2.38445 13.5668 0.812142 2.28494 -14.3536 4.17678 -4.07843 -14.3931 10.4398 -2.52609 -0.0 0.0 -0.0 -2.10537 17.1502 -1.24666 -24.1726 -42.4604 61.0884 0.384129 -10.774 0.0362232 33.2209 -0.0443773 -4.18465 5.61929 -27.5228 24.8859 -0.0 0.0 -0.0 11.3252 8.75307 -22.7579 86.6788 -70.4322 20.0395 0.190264 5.38442 -0.00894667 84.7169 4.39266 8.85299 -4.89734 -28.4233 15.6205 0.0 0.0 0.0 45.0186 2.59744 6.64322 -18.8211 0.307804 2.85889 41.7498 25.2713 -5.34209 33.9122 -0.0 -0.0 -0.0 0.0 -0.0 49.6375 13.3913 3.80523 -26.7426 -0.154986 -4.06389 40.9607 -25.2701 5.26833 -5.89522 0.0 0.0 0.0 0.0 0.0 
404.708285497 715.592 -1190.86715679 -143.675244263 -16.3549280712 -171.644491003 13.565 0.532295 2.3658 13.5681 0.380719 2.39485 13.5739 0.441196 2.38445 13.5668 0.812142 2.28494 -14.3536 4.17678 -4.07843 -14.3931 10.4398 -2.52609 -0.0 0.0 -0.0 -2.10537 17.1502 -1.24666 -24.1726 -42.4604 61.0884 0.384129 -10.774 0.0362232 33.2209 -0.0443773 -4.18465 5.61929 -27.5228 24.8859 -0.0 0.0 -0.0 11.3252 8.75307 -22.7579 86.6788 -70.4322 20.0395 0.190264 5.38442 -0.00894667 84.7169 4.39266 8.85299 -4.89734 -28.4233 15.6205 0.0 0.0 0.0 45.0186 2.59744 6.64322 -18.8211 0.307804 2.85889 41.7498 25.2713 -5.34209 33.9122 -0.0 -0.0 -0.0 0.0 -0.0 49.6375 13.3913 3.80523 -26.7426 -0.154986 -4.06389 40.9607 -25.2701 5.26833 -5.89522 0.0 0.0 0.0 0.0 0.0 
404.953028619 715.592 -1191.10850915 -143.488846355 -17.1931310363 -170.998640325 13.565 0.532295 2.3658 13.5681 0.380719 2.39485 13.5739 0.441196 2.38445 13.5668 0.812142 2.28494 -14.3536 4.17678 -4.07843 -14.3931 10.4398 -2.52609 -0.0 0.0 -0.0 -2.10537 17.1502 -1.24666 -24.1726 -42.4604 61.0884 0.384129 -10.774 0.0362232 33.2209 -0.0443773 -4.18465 5.61929 -27.5228 24.8859 -0.0 0.0 -0.0 11.3252 8.75307 -22.7579 86.6788 -70.4322 20.0395 0.190264 5.38442 -0.00894667 84.7169 4.39266 8.85299 -4.89734 -28.4233 15.6205 0.0 0.0 0.0 45.0186 2.59744 6.64322 -18.8211 0.307804 2.85889 41.7498 25.2713 -5.34209 33.9122 -0.0 -0.0 -0.0 0.0 -0.0 49.6375 13.3913 3.80523 -26.7426 -0.154986 -4.06389 40.9607 -25.2701 5.26833 -5.89522 0.0 0.0 0.0 0.0 0.0 
